<?xml version="1.0" standalone="no"?><svg xmlns="http://www.w3.org/2000/svg" viewBox="0 0 1440 320"><path fill="#f3f4f5" fill-opacity="1" d="M0,224L24,213.3C48,203,96,181,144,165.3C192,149,240,139,288,117.3C336,96,384,64,432,96C480,128,528,224,576,240C624,256,672,192,720,181.3C768,171,816,213,864,224C912,235,960,213,1008,186.7C1056,160,1104,128,1152,144C1200,160,1248,224,1296,240C1344,256,1392,224,1416,208L1440,192L1440,320L1416,320C1392,320,1344,320,1296,320C1248,320,1200,320,1152,320C1104,320,1056,320,1008,320C960,320,912,320,864,320C816,320,768,320,720,320C672,320,624,320,576,320C528,320,480,320,432,320C384,320,336,320,288,320C240,320,192,320,144,320C96,320,48,320,24,320L0,320Z"></path></svg>